PathFileType	4	(X/Y/Z)	C:/Users/beibeiliu/ov580/test_trc/capture2\sequence.31_training_dense_left.trc
DataRate	CameraRate	NumFrames	NumMarkers	Units	OrigDataRate	OrigDataStartFrame	OrigNumFrames
120	120	16	19	mm	120	301	400
Frame#	Time	ThumbCMC			ThumbMCP			ThumbIP			ThumbTip			IndexMCP			IndexPIP			IndexTip			MiddleMCP			MiddlePIP			MiddleTip			RingMCP			RingPIP			RingTip			PinkyMCP			PinkyPIP			PinkyTip			BackHand1			BackHand2			BackHand3	
		X0	Y0	Z0	X1	Y1	Z1	X2	Y2	Z2	X3	Y3	Z3	X4	Y4	Z4	X5	Y5	Z5	X6	Y6	Z6	X7	Y7	Z7	X8	Y8	Z8	X9	Y9	Z9	X10	Y10	Z10	X11	Y11	Z11	X12	Y12	Z12	X13	Y13	Z13	X14	Y14	Z14	X15	Y15	Z15	X16	Y16	Z16	X17	Y17	Z17	X18	Y18	Z18	
300	2.5	-102.248	12.3403	29.0834	-96.2041	-5.74594	-0.73419	-91.791	-12.2685	-24.6246	-92.3608	-16.1799	-50.7893	-91.498	40.0257	-44.242	-87.8606	20.1284	-65.9438	-106.514	-6.60976	-68.5035	-112.604	49.4443	-52.042	-111.44	33.2367	-77.6727	-116.487	3.32114	-88.9657	-134.766	51.5971	-51.8848	-135.411	41.4999	-73.9422	-137.288	22.287	-100.875	-160.251	51.4943	-43.4628	-165.533	48.6507	-60.5332	-171.37	52.3425	-81.6603	-138.826	58.1389	5.17022	-141.983	58.0668	30.9994	-114.773	51.8562	21.4689	
301	2.50833	-102.647	13.5337	26.1518	-94.735	-6.00665	-0.294514	-88.5173	-15.4895	-22.6539	-89.3919	-16.0573	-45.8963	-91.358	38.7398	-40.0631	-89.2945	18.7496	-63.935	-103.352	-10.8534	-61.055	-111.348	49.7334	-47.5505	-111.518	31.8852	-79.01	-118.929	5.85188	-91.769	-131.447	50.5533	-47.9542	-137.067	42.5643	-75.8704	-132.324	23.6677	-100.505	-159.891	51.8511	-41.9364	-164.572	47.8941	-61.6731	-169.403	52.3557	-82.4205	-142.01	59.1671	5.34097	-144.978	58.3135	32.4289	-110.962	51.8808	23.2677	
302	2.51667	-100.353	11.976	28.0074	-93.2508	-7.42966	0.854816	-88.3376	-13.9801	-19.9909	-87.4482	-16.2297	-49.9023	-86.4406	36.6796	-38.7185	-88.6339	16.5427	-63.1007	-106.605	-14.0323	-53.8284	-110.38	49.7165	-50.5956	-108.948	33.6598	-78.4335	-112.708	8.82514	-93.2172	-131.119	51.9694	-51.6968	-136.903	44.3629	-75.0171	-133.294	27.2312	-101.717	-156.99	51.1895	-42.2252	-160.858	48.5491	-62.7263	-169.1	53.1176	-83.5197	-140.185	59.7706	6.11269	-147.676	57.3114	32.3738	-111.572	49.4541	26.1675	
303	2.525	-102.217	12.2266	28.3739	-92.3216	-7.83768	2.27792	-88.9434	-13.9818	-20.8866	-87.4672	-18.2066	-47.1447	-90.0842	37.3766	-40.6499	-93.5096	12.432	-62.7265	-108.025	-12.1643	-50.1674	-107.915	50.8083	-52.8287	-109.917	36.1408	-79.4598	-110.635	9.3735	-96.666	-134.001	52.823	-48.1922	-131.066	46.254	-74.0767	-132.228	33.4948	-100.622	-154.562	51.0039	-41.1316	-163.95	49.2323	-64.6824	-168.803	53.7439	-81.3425	-138.684	59.9171	2.30091	-146.483	59.305	30.044	-112.622	50.2445	24.9224	
304	2.53333	-101.782	12.7021	25.922	-92.4598	-10.3085	2.51581	-89.473	-14.2977	-23.7956	-93.1422	-15.339	-49.6195	-88.947	33.9922	-41.8973	-93.1456	9.25825	-61.5484	-110.708	-12.2989	-45.4718	-110.722	50.2729	-51.0687	-109.347	40.9426	-77.0545	-112.201	15.9479	-101.689	-130.665	53.288	-52.2001	-129.236	48.283	-78.107	-131.815	40.6991	-99.4712	-156.816	50.127	-44.0604	-161.267	47.8904	-64.0372	-169.114	56.2408	-82.3663	-136.92	59.3262	5.95595	-141.968	54.8881	30.4103	-108.388	49.4061	23.1032	
305	2.54167	-99.6211	12.5899	24.2012	-95.9367	-8.59396	2.69392	-88.0938	-18.5626	-24.8071	-94.4752	-19.6344	-50.7583	-84.8479	29.3507	-44.6389	-92.5267	7.37719	-62.336	-111.23	-15.1457	-39.9451	-109.593	50.1395	-49.3737	-105.316	41.0408	-77.5721	-105.774	19.5391	-104.133	-131.885	53.9262	-50.5344	-134.215	52.4973	-74.9471	-129.032	45.4018	-101.17	-158.591	50.132	-40.2947	-163.079	49.5741	-62.5898	-169.56	57.9785	-83.6931	-137.876	57.5828	3.30472	-144.027	58.532	27.555	-110.509	49.6094	23.2599	
306	2.55	-100.852	11.2439	27.3782	-95.9536	-9.71692	1.4434	-89.1064	-19.4212	-26.5031	-93.7659	-22.3806	-48.5113	-88.83	29.3068	-44.8923	-95.9439	2.98745	-60.4839	-112.151	-14.7975	-39.8948	-107.906	49.2841	-50.9011	-105.592	41.0249	-78.6405	-104.801	22.3874	-106.796	-131.999	54.112	-52.2029	-129.882	51.9832	-78.9313	-131.168	49.9846	-100.775	-154.484	49.7993	-41.2465	-162.15	49.0671	-63.709	-171.337	58.083	-80.5411	-135.666	57.6733	1.61201	-142.599	57.058	28.6648	-111.926	50.5124	21.044	
307	2.55833	-96.4444	10.4795	28.7436	-90.5308	-13.2294	5.40164	-88.1462	-19.5432	-22.1194	-93.1081	-21.2962	-48.3916	-87.0651	29.1124	-43.5258	-95.1434	3.49961	-60.3848	-112.536	-14.921	-41.273	-109.868	47.9245	-51.4856	-106.746	40.2124	-82.0097	-105.785	25.881	-105.847	-128.972	52.5629	-51.1975	-129.345	51.2854	-76.0768	-132.719	50.9946	-99.6088	-158.33	48.4079	-42.3652	-163.28	48.0333	-60.4024	-172.82	58.4571	-81.0598	-138.787	55.7587	2.92318	-141.337	55.37	28.2945	-108.451	49.2265	22.6288	
308	2.56667	-97.7026	13.0904	26.0807	-88.7756	-9.8753	7.41145	-81.7861	-20.1575	-19.5144	-87.1057	-22.7418	-43.3101	-86.6837	28.5644	-42.0145	-89.6884	0.42401	-58.5056	-108.187	-17.1698	-38.8584	-109.828	47.7324	-49.7422	-105.907	39.0433	-77.5355	-107.112	27.8959	-103.638	-133.244	50.3593	-51.6476	-133.95	49.8597	-74.5896	-130.099	47.4959	-97.976	-160.708	44.4697	-38.3203	-167.945	44.1677	-61.9271	-174.804	53.7879	-76.2293	-137.272	54.3116	3.51472	-146.223	53.3951	29.0921	-113.429	49.3566	20.2752	
309	2.575	-95.4424	17.387	26.7549	-87.9218	-2.41831	6.25751	-78.871	-12.629	-20.3645	-81.6357	-16.7543	-46.3742	-88.0265	32.4042	-40.6398	-91.8008	4.28123	-57.459	-103.492	-17.735	-35.9332	-109.034	47.3476	-49.879	-105.433	39.5423	-75.3106	-108.064	25.8714	-103.368	-136.723	48.0808	-48.2563	-132.937	45.9281	-74.6977	-134.255	44.9511	-103.161	-158.399	41.0894	-42.0151	-166.441	38.8907	-60.5385	-175.228	47.4469	-80.1986	-143.951	55.2298	1.87536	-148.434	51.7941	32.0079	-114.827	52.9355	18.4419	
310	2.58333	-95.0154	23.3702	28.1263	-80.6258	3.36781	7.67312	-76.1261	-4.30306	-15.2274	-74.5348	-11.7188	-40.0644	-88.706	35.0374	-41.1277	-90.3849	6.88955	-56.5954	-101.28	-14.4115	-34.1012	-113.739	45.9864	-50.8796	-112.062	37.3044	-77.6679	-107.638	22.3144	-104.719	-139.89	44.0444	-48.5714	-138.198	41.3528	-73.9783	-141.611	37.7319	-101.966	-162.024	33.8328	-41.5743	-169.342	28.9063	-61.4885	-176.67	34.9077	-78.6298	-148.802	51.6897	1.43844	-148.159	51.0877	29.6891	-117.403	52.1845	22.8069	
311	2.59167	-97.4416	28.7988	30.6034	-81.6043	11.3137	6.9547	-67.321	2.5012	-14.6868	-72.8007	-3.18336	-39.4342	-96.8128	37.1264	-44.5516	-89.2031	9.83488	-56.2304	-91.7911	-13.0227	-32.3329	-118.235	45.0158	-50.7716	-117.987	33.333	-78.45	-109.491	16.34	-104.408	-143.175	38.4417	-49.1419	-145.717	33.1995	-74.3285	-145.528	28.364	-99.085	-162.545	25.2091	-42.1041	-167.968	18.6094	-59.6998	-182.099	19.0132	-76.9347	-152.848	46.2711	0.513263	-152.934	47.1762	32.2645	-120.289	56.5601	16.6008	
312	2.6	-95.1375	38.8454	26.2952	-80.8788	22.1685	6.25815	-69.8554	13.839	-15.5589	-71.1973	4.25442	-41.5759	-100.228	41.0024	-45.8306	-88.6882	12.2538	-54.1629	-91.4204	-7.1472	-27.3212	-129.716	40.3918	-52.3567	-118.022	29.5097	-80.4718	-110.949	10.0498	-103.831	-149.189	30.5189	-50.897	-146.912	24.5817	-73.2038	-144.667	16.7047	-99.4334	-165.531	13.7227	-40.9547	-168.635	3.80787	-58.3074	-182.877	1.97524	-72.7886	-156.869	41.7557	-0.917273	-160.239	42.485	31.0364	-129.554	55.9039	18.4089	
313	2.60833	-99.3599	46.2379	27.2571	-82.3558	31.3214	7.86698	-70.1567	21.438	-21.6503	-68.065	11.1333	-42.3019	-108.336	42.5963	-45.5983	-93.6925	16.188	-55.8935	-87.2783	-0.333688	-26.4339	-132.509	37.323	-54.1928	-128.174	20.6537	-79.437	-113.08	4.33664	-101.724	-152.18	21.4026	-51.1455	-152.724	9.42231	-72.5386	-147.157	2.91022	-98.1728	-163.269	3.19344	-33.6773	-166.326	-8.78847	-53.6316	-176.121	-17.516	-71.6771	-160.053	37.8151	-1.52499	-165.07	39.3705	31.3289	-136.92	57.2647	14.5999	
314	2.61667	-107.717	52.8709	22.783	-85.4241	38.6645	1.6047	-70.897	31.3489	-19.8395	-71.1289	15.9695	-40.4901	-116.522	40.5888	-48.2582	-94.571	17.9417	-55.1551	-84.7636	8.15513	-24.121	-139.895	27.1552	-53.3254	-128.801	14.7644	-78.0858	-111.856	-1.23883	-98.4433	-155.513	9.15917	-46.3659	-148.467	2.55527	-69.0781	-144.129	-8.32704	-93.0088	-160.528	-6.8294	-34.0535	-160.623	-20.899	-46.5807	-169.29	-33.7699	-66.1284	-164.515	25.2837	-1.51824	-167.561	30.5477	31.6776	-147.711	51.6814	10.5213	
315	2.625	-114.474	58.2199	18.2388	-89.9211	46.6311	-0.787281	-76.5248	38.1213	-21.9854	-72.5327	20.6127	-46.5223	-118.255	37.2295	-54.3438	-92.0153	23.0523	-55.7496	-82.8587	17.489	-24.5309	-140.836	20.2008	-58.6554	-127.974	8.86378	-81.1109	-110.539	-7.37754	-97.6976	-152.483	1.96842	-46.8759	-145.942	-9.77599	-70.1556	-139.618	-21.4697	-90.9724	-155.113	-16.1754	-30.5516	-152.362	-30.9795	-48.0252	-155.982	-47.7345	-66.2447	-163.789	20.9557	1.0118	-168.819	23.4012	30.0672	-155.226	48.3759	9.61536	
